Coordinates
version=1
nRows=16
nColumns=63
inDegrees=yes

Units are S.I. units (second, meters, Newtons, ...)
If the header above contains a line with 'inDegrees', this indicates whether rotational values are in degrees (yes) or radians (no).

endheader
time	pelvis_tilt	pelvis_list	pelvis_rotation	pelvis_tx	pelvis_ty	pelvis_tz	hip_flexion_r	hip_adduction_r	hip_rotation_r	knee_angle_r	knee_angle_r_beta	ankle_angle_r	subtalar_angle_r	mtp_angle_r	hip_flexion_l	hip_adduction_l	hip_rotation_l	knee_angle_l	knee_angle_l_beta	ankle_angle_l	subtalar_angle_l	mtp_angle_l	L5_S1_Flex_Ext	L5_S1_Lat_Bending	L5_S1_axial_rotation	L4_L5_Flex_Ext	L4_L5_Lat_Bending	L4_L5_axial_rotation	L3_L4_Flex_Ext	L3_L4_Lat_Bending	L3_L4_axial_rotation	L2_L3_Flex_Ext	L2_L3_Lat_Bending	L2_L3_axial_rotation	L1_L2_Flex_Ext	L1_L2_Lat_Bending	L1_L2_axial_rotation	L1_T12_Flex_Ext	L1_T12_Lat_Bending	L1_T12_axial_rotation	Abs_r3	Abs_r2	Abs_r1	Abs_t1	Abs_t2	neck_flexion	neck_bending	neck_rotation	arm_flex_r	arm_add_r	arm_rot_r	elbow_flex_r	pro_sup_r	wrist_flex_r	wrist_dev_r	arm_flex_l	arm_add_l	arm_rot_l	elbow_flex_l	pro_sup_l	wrist_flex_l	wrist_dev_l
1.066667	5.204164	-0.840701	95.367272	0.115106	0.927066	0.406496	-3.235337	0.984103	-25.756345	5.216184	0.091040	25.837466	17.819559	0.000000	-1.037532	-2.347030	26.548899	5.402268	0.094287	23.444247	-16.896333	0.000000	0.069233	-0.049887	-1.138688	0.128573	-0.066350	-1.209856	0.113743	-0.121295	-1.209856	0.079126	-0.121295	-0.996352	0.064290	-0.101729	-0.925184	0.039560	-0.077275	-0.854016	0.494525	-0.564331	-6.333041	0.000000	0.000000	24.591262	0.094169	-7.320437	3.610964	-14.325183	60.180942	34.379156	88.522748	-11.935912	-0.201203	-9.072610	-16.855133	26.346771	56.599039	88.457520	0.290940	7.348447
1.083333	5.240013	-0.733616	95.553233	0.114332	0.927117	0.405740	-3.411280	1.001648	-26.021969	5.224435	0.091184	25.718840	17.800093	0.000000	-1.214721	-2.367191	26.644976	5.368613	0.093700	23.427494	-16.880939	0.000000	0.068539	-0.061548	-1.210517	0.127283	-0.081858	-1.286174	0.112602	-0.149647	-1.286174	0.078333	-0.149647	-1.059202	0.063645	-0.125508	-0.983545	0.039163	-0.095337	-0.907888	0.489564	-0.696239	-6.732533	0.000000	0.000000	24.049276	-0.075365	-7.626608	3.854411	-14.216801	61.050178	34.146596	88.496099	-11.434134	-0.062042	-9.687832	-16.855827	25.830990	56.896707	88.500211	-0.702028	6.200424
1.100000	5.273883	-0.631078	95.732258	0.113601	0.927198	0.404990	-3.566818	1.012576	-26.306248	5.267819	0.091941	25.600471	17.784733	0.000000	-1.407977	-2.398441	26.722334	5.299368	0.092491	23.343234	-16.894199	0.000000	0.068560	-0.072508	-1.286508	0.127322	-0.096436	-1.366915	0.112637	-0.176296	-1.366915	0.078357	-0.176296	-1.125695	0.063664	-0.147858	-1.045288	0.039175	-0.112315	-0.964881	0.489715	-0.820224	-7.155173	0.000000	0.000000	23.468360	-0.193978	-7.732262	4.139708	-14.059940	62.058084	33.827556	88.465309	-10.991538	0.048382	-10.321320	-16.829621	25.278017	57.154986	88.527152	-1.656564	4.982881
1.116667	5.320373	-0.541399	95.864736	0.112898	0.927293	0.404235	-3.690899	1.024130	-26.555225	5.340872	0.093216	25.465004	17.762385	0.000000	-1.592067	-2.436368	26.713370	5.243356	0.091514	23.230875	-16.914918	0.000000	0.070070	-0.080250	-1.352097	0.130127	-0.106733	-1.436603	0.115118	-0.195120	-1.436603	0.080083	-0.195120	-1.183085	0.065067	-0.163646	-1.098579	0.040038	-0.124307	-1.014073	0.500504	-0.907804	-7.519959	0.000000	0.000000	22.915008	-0.322932	-7.703581	4.420712	-13.896326	63.061933	33.478359	88.449242	-10.592396	0.174491	-10.927292	-16.781864	24.788240	57.349923	88.550240	-2.588645	3.791956
1.133333	5.364834	-0.458495	96.026122	0.112182	0.927397	0.403470	-3.804223	1.033638	-26.854523	5.434290	0.094846	25.339480	17.743995	0.000000	-1.782772	-2.483212	26.733733	5.156515	0.089998	23.071425	-16.965287	0.000000	0.072033	-0.087704	-1.423324	0.133773	-0.116646	-1.512282	0.118343	-0.213243	-1.512282	0.082327	-0.213243	-1.245409	0.066890	-0.178845	-1.156451	0.041160	-0.135853	-1.067493	0.514525	-0.992121	-7.916102	0.000000	0.000000	22.388396	-0.427235	-7.552618	4.696353	-13.685983	64.104436	33.051682	88.445104	-10.324529	0.242055	-11.536307	-16.720774	24.320097	57.477979	88.577189	-3.471585	2.572843
1.150000	5.399005	-0.386020	96.180651	0.111482	0.927513	0.402678	-3.894818	1.025021	-27.171595	5.565763	0.097141	25.240563	17.742037	0.000000	-1.986402	-2.528491	26.741924	5.027372	0.087744	22.864887	-17.032306	0.000000	0.075834	-0.094999	-1.495330	0.140832	-0.126349	-1.588788	0.124588	-0.230981	-1.588788	0.086671	-0.230981	-1.308414	0.070420	-0.193723	-1.214956	0.043332	-0.147154	-1.121497	0.541678	-1.074652	-8.316577	0.000000	0.000000	21.883621	-0.455869	-7.200437	4.978472	-13.436182	65.251603	32.541115	88.433231	-10.246369	0.227089	-12.153941	-16.645699	23.859567	57.518246	88.597547	-4.217425	1.360537
1.166667	5.432223	-0.304782	96.385336	0.110721	0.927646	0.401891	-3.994709	1.017801	-27.551470	5.714724	0.099741	25.175203	17.743681	0.000000	-2.207217	-2.582845	26.822712	4.866604	0.084938	22.637778	-17.122553	0.000000	0.077929	-0.102435	-1.572028	0.144722	-0.136239	-1.670280	0.128029	-0.249061	-1.670280	0.089065	-0.249061	-1.375525	0.072365	-0.208886	-1.277273	0.044529	-0.158672	-1.179021	0.556638	-1.158768	-8.743149	0.000000	0.000000	21.408313	-0.432157	-6.848833	5.247810	-13.163710	66.419645	31.994426	88.401645	-10.305106	0.173612	-12.751060	-16.577958	23.445685	57.497434	88.635602	-4.820464	0.217223
1.183333	5.458332	-0.230839	96.644295	0.109879	0.927791	0.401123	-4.089112	1.004692	-27.992473	5.872417	0.102493	25.134245	17.753261	0.000000	-2.428383	-2.636660	26.964695	4.670162	0.081510	22.374037	-17.219237	0.000000	0.081535	-0.110317	-1.655633	0.151419	-0.146722	-1.759110	0.133954	-0.268225	-1.759110	0.093187	-0.268225	-1.448679	0.075714	-0.224958	-1.345202	0.046589	-0.170881	-1.241725	0.582397	-1.247928	-9.208132	0.000000	0.000000	20.945268	-0.350709	-6.445689	5.507915	-12.864266	67.631844	31.399812	88.323046	-10.446355	0.059664	-13.325600	-16.522971	23.102017	57.425002	88.671445	-5.357760	-0.861523
1.200000	5.485476	-0.147621	96.924273	0.108987	0.927965	0.400395	-4.189029	0.994348	-28.457603	6.039108	0.105402	25.121322	17.776780	0.000000	-2.666661	-2.698093	27.140269	4.444614	0.077573	22.080639	-17.335110	0.000000	0.083798	-0.117486	-1.735778	0.155620	-0.156256	-1.844264	0.137671	-0.285656	-1.844264	0.095772	-0.285656	-1.518805	0.077814	-0.239578	-1.410319	0.047882	-0.181986	-1.301833	0.598557	-1.329026	-9.653874	0.000000	0.000000	20.482786	-0.187338	-5.989623	5.728266	-12.569790	68.745930	30.819628	88.246648	-10.646801	-0.080902	-13.838722	-16.493030	22.840753	57.322757	88.700888	-5.707823	-1.781074
1.216667	5.513364	-0.062197	97.250953	0.108000	0.928159	0.399730	-4.295367	0.990584	-28.953450	6.193458	0.108096	25.128482	17.804255	0.000000	-2.906649	-2.765115	27.374581	4.196278	0.073239	21.746081	-17.459500	0.000000	0.085360	-0.124223	-1.822265	0.158521	-0.165217	-1.936156	0.140237	-0.302037	-1.936156	0.097558	-0.302037	-1.594481	0.079265	-0.253316	-1.480590	0.048774	-0.192422	-1.366698	0.609715	-1.405239	-10.134889	0.000000	0.000000	20.023792	0.070031	-5.487747	5.954410	-12.282340	69.850725	30.248060	88.128583	-10.768291	-0.191298	-14.332382	-16.472428	22.574362	57.237407	88.731569	-5.971967	-2.512822
1.233333	5.541151	0.027655	97.607802	0.106946	0.928370	0.399125	-4.410335	0.994010	-29.451811	6.330647	0.110491	25.158574	17.833609	0.000000	-3.151254	-2.837809	27.658428	3.928163	0.068559	21.363524	-17.596682	0.000000	0.085613	-0.130593	-1.907653	0.158993	-0.173688	-2.026881	0.140654	-0.317523	-2.026881	0.097848	-0.317523	-1.669196	0.079501	-0.266305	-1.549968	0.048920	-0.202288	-1.430740	0.611529	-1.477291	-10.609793	0.000000	0.000000	19.569607	0.398341	-4.965468	6.153955	-12.011606	70.876871	29.711217	87.949949	-10.827769	-0.288898	-14.780155	-16.469173	22.319193	57.181598	88.755803	-6.100702	-3.010022
1.250000	5.569725	0.118028	97.973894	0.105846	0.928580	0.398565	-4.533739	1.006015	-29.920663	6.435947	0.112328	25.212748	17.862229	0.000000	-3.395220	-2.911240	27.948054	3.647222	0.063656	20.958307	-17.724102	0.000000	0.084718	-0.136276	-1.989334	0.157330	-0.181247	-2.113668	0.139184	-0.331342	-2.113668	0.096825	-0.331342	-1.740667	0.078669	-0.277894	-1.616334	0.048408	-0.211092	-1.492001	0.605135	-1.541583	-11.064080	0.000000	0.000000	19.135502	0.782384	-4.425161	6.321894	-11.762223	71.750540	29.205325	87.819480	-10.774999	-0.379888	-15.194879	-16.477043	22.052335	57.177398	88.776499	-6.101573	-3.273875
1.266667	5.602157	0.202296	98.337834	0.104723	0.928777	0.398063	-4.659143	1.030341	-30.343560	6.502421	0.113489	25.279774	17.885299	0.000000	-3.624188	-2.986572	28.256065	3.365817	0.058745	20.543607	-17.853910	0.000000	0.082908	-0.140802	-2.058379	0.153969	-0.187266	-2.187028	0.136210	-0.342345	-2.187028	0.094756	-0.342345	-1.801082	0.076989	-0.287123	-1.672433	0.047374	-0.218102	-1.543784	0.592206	-1.592776	-11.448087	0.000000	0.000000	18.754092	1.222614	-3.877968	6.438153	-11.544621	72.453513	28.741521	87.698431	-10.665139	-0.468712	-15.527480	-16.509369	21.852651	57.207280	88.788620	-5.963474	-3.275017
1.283333	5.623628	0.281728	98.682963	0.103641	0.928964	0.397585	-4.797193	1.057568	-30.720659	6.515157	0.113711	25.362808	17.916756	0.000000	-3.847697	-3.052897	28.537366	3.071415	0.053606	20.165643	-17.920256	0.000000	0.080311	-0.146681	-2.118285	0.149146	-0.195085	-2.250678	0.131943	-0.356639	-2.250678	0.091788	-0.356639	-1.853500	0.074577	-0.299111	-1.721107	0.045890	-0.227208	-1.588714	0.573655	-1.659281	-11.781267	0.000000	0.000000	18.393593	1.664596	-3.421456	6.569460	-11.321383	73.302425	28.262313	87.358982	-10.549037	-0.642918	-15.842209	-16.551160	21.639580	57.265405	88.803556	-5.787157	-3.211652
1.300000	5.631658	0.351627	99.011159	0.102603	0.929137	0.397128	-4.945383	1.085446	-31.041999	6.471339	0.112946	25.449854	17.938810	0.000000	-4.056321	-3.102397	28.876907	2.771331	0.048369	19.824024	-18.021115	0.000000	0.078105	-0.153960	-2.167112	0.145048	-0.204766	-2.302557	0.128318	-0.374337	-2.302557	0.089266	-0.374337	-1.896223	0.072528	-0.313954	-1.760779	0.044629	-0.238483	-1.625334	0.557894	-1.741622	-12.052827	0.000000	0.000000	18.050348	2.120731	-3.049535	6.702946	-11.101450	74.228606	27.778609	86.860966	-10.443865	-0.888709	-16.110301	-16.614254	21.490779	57.311251	88.815361	-5.599378	-3.159627
1.316667	5.621321	0.410349	99.302713	0.101635	0.929298	0.396714	-5.098561	1.105346	-31.295529	6.377295	0.111305	25.534832	17.950302	0.000000	-4.241371	-3.125254	29.210644	2.478222	0.043253	19.557510	-18.099065	0.000000	0.076804	-0.163036	-2.202735	0.142632	-0.216838	-2.340405	0.126181	-0.396406	-2.340405	0.087779	-0.396406	-1.927393	0.071320	-0.332463	-1.789722	0.043886	-0.252543	-1.652051	0.548602	-1.844298	-12.250949	0.000000	0.000000	17.716063	2.581715	-2.773519	6.853825	-10.877450	75.289341	27.274741	86.275069	-10.408260	-1.226862	-16.329066	-16.688986	21.407798	57.316621	88.824944	-5.417027	-3.186540
